<mxfile host="app.diagrams.net" modified="2022-10-03T14:59:17.771Z" agent="5.0 (X11; Linux x86_64) AppleWebKit/537.36 (KHTML, like Gecko) Chrome/106.0.0.0 Safari/537.36" etag="qExPZmKzGD0VlxowwxVX" version="20.4.0" type="github">
  <diagram id="F7NOa8_fFkEQ-V3PwpDE" name="PÃ¡gina-1">
    <mxGraphModel dx="2500" dy="933" grid="1" gridSize="10" guides="1" tooltips="1" connect="1" arrows="1" fold="1" page="1" pageScale="1" pageWidth="827" pageHeight="1169" background="#182E3E" math="0" shadow="0">
      <root>
        <mxCell id="0" />
        <mxCell id="1" parent="0" />
        <mxCell id="h3ZFdbcTQpDhvGvfW7HE-25" style="edgeStyle=orthogonalEdgeStyle;rounded=0;orthogonalLoop=1;jettySize=auto;html=1;exitX=0.5;exitY=1;exitDx=0;exitDy=0;entryX=0;entryY=0.5;entryDx=0;entryDy=0;strokeColor=#FFFFFF;fontColor=#FFFFFF;" parent="1" source="h3ZFdbcTQpDhvGvfW7HE-1" target="h3ZFdbcTQpDhvGvfW7HE-6" edge="1">
          <mxGeometry relative="1" as="geometry" />
        </mxCell>
        <mxCell id="h3ZFdbcTQpDhvGvfW7HE-26" style="edgeStyle=orthogonalEdgeStyle;rounded=0;orthogonalLoop=1;jettySize=auto;html=1;exitX=0.5;exitY=1;exitDx=0;exitDy=0;entryX=1;entryY=0.5;entryDx=0;entryDy=0;strokeColor=#FFFFFF;fontColor=#FFFFFF;" parent="1" source="h3ZFdbcTQpDhvGvfW7HE-1" target="h3ZFdbcTQpDhvGvfW7HE-10" edge="1">
          <mxGeometry relative="1" as="geometry" />
        </mxCell>
        <mxCell id="h3ZFdbcTQpDhvGvfW7HE-1" value="F" style="ellipse;whiteSpace=wrap;html=1;aspect=fixed;fillColor=#EEEEEE;strokeColor=#FFFFFF;fontColor=#1A1A1A;" parent="1" vertex="1">
          <mxGeometry x="370" y="350" width="60" height="60" as="geometry" />
        </mxCell>
        <mxCell id="h3ZFdbcTQpDhvGvfW7HE-2" value="C" style="ellipse;whiteSpace=wrap;html=1;aspect=fixed;fillColor=#EEEEEE;strokeColor=#FFFFFF;fontColor=#1A1A1A;" parent="1" vertex="1">
          <mxGeometry x="-630" y="350" width="60" height="60" as="geometry" />
        </mxCell>
        <mxCell id="h3ZFdbcTQpDhvGvfW7HE-49" style="edgeStyle=orthogonalEdgeStyle;rounded=0;orthogonalLoop=1;jettySize=auto;html=1;exitX=0.5;exitY=1;exitDx=0;exitDy=0;entryX=0.5;entryY=0;entryDx=0;entryDy=0;strokeColor=#FFFFFF;fontColor=#FFFFFF;" parent="1" source="h3ZFdbcTQpDhvGvfW7HE-3" target="h3ZFdbcTQpDhvGvfW7HE-47" edge="1">
          <mxGeometry relative="1" as="geometry" />
        </mxCell>
        <mxCell id="h3ZFdbcTQpDhvGvfW7HE-50" style="edgeStyle=orthogonalEdgeStyle;rounded=0;orthogonalLoop=1;jettySize=auto;html=1;exitX=0.5;exitY=1;exitDx=0;exitDy=0;entryX=0.5;entryY=0;entryDx=0;entryDy=0;strokeColor=#FFFFFF;fontColor=#FFFFFF;" parent="1" source="h3ZFdbcTQpDhvGvfW7HE-3" target="h3ZFdbcTQpDhvGvfW7HE-46" edge="1">
          <mxGeometry relative="1" as="geometry" />
        </mxCell>
        <mxCell id="h3ZFdbcTQpDhvGvfW7HE-3" value="F24" style="ellipse;whiteSpace=wrap;html=1;aspect=fixed;fillColor=#EEEEEE;strokeColor=#FFFFFF;fontColor=#1A1A1A;" parent="1" vertex="1">
          <mxGeometry x="460" y="820" width="60" height="60" as="geometry" />
        </mxCell>
        <mxCell id="h3ZFdbcTQpDhvGvfW7HE-35" style="edgeStyle=orthogonalEdgeStyle;rounded=0;orthogonalLoop=1;jettySize=auto;html=1;exitX=0.5;exitY=1;exitDx=0;exitDy=0;strokeColor=#FFFFFF;fontColor=#FFFFFF;" parent="1" source="h3ZFdbcTQpDhvGvfW7HE-4" target="h3ZFdbcTQpDhvGvfW7HE-17" edge="1">
          <mxGeometry relative="1" as="geometry" />
        </mxCell>
        <mxCell id="h3ZFdbcTQpDhvGvfW7HE-4" value="F33F" style="ellipse;whiteSpace=wrap;html=1;aspect=fixed;fillColor=#EEEEEE;strokeColor=#FFFFFF;fontColor=#1A1A1A;" parent="1" vertex="1">
          <mxGeometry x="740" y="950" width="60" height="60" as="geometry" />
        </mxCell>
        <mxCell id="h3ZFdbcTQpDhvGvfW7HE-28" style="edgeStyle=orthogonalEdgeStyle;rounded=0;orthogonalLoop=1;jettySize=auto;html=1;exitX=0.5;exitY=1;exitDx=0;exitDy=0;entryX=0.5;entryY=0;entryDx=0;entryDy=0;strokeColor=#FFFFFF;fontColor=#FFFFFF;" parent="1" source="h3ZFdbcTQpDhvGvfW7HE-5" target="h3ZFdbcTQpDhvGvfW7HE-14" edge="1">
          <mxGeometry relative="1" as="geometry" />
        </mxCell>
        <mxCell id="h3ZFdbcTQpDhvGvfW7HE-5" value="F33B" style="ellipse;whiteSpace=wrap;html=1;aspect=fixed;fillColor=#EEEEEE;strokeColor=#FFFFFF;fontColor=#1A1A1A;" parent="1" vertex="1">
          <mxGeometry x="740" y="680" width="60" height="60" as="geometry" />
        </mxCell>
        <mxCell id="h3ZFdbcTQpDhvGvfW7HE-19" style="edgeStyle=orthogonalEdgeStyle;rounded=0;orthogonalLoop=1;jettySize=auto;html=1;exitX=1;exitY=0.5;exitDx=0;exitDy=0;entryX=0;entryY=0.5;entryDx=0;entryDy=0;strokeColor=#FFFFFF;fontColor=#FFFFFF;" parent="1" source="h3ZFdbcTQpDhvGvfW7HE-6" target="h3ZFdbcTQpDhvGvfW7HE-9" edge="1">
          <mxGeometry relative="1" as="geometry" />
        </mxCell>
        <mxCell id="h3ZFdbcTQpDhvGvfW7HE-21" value="" style="edgeStyle=orthogonalEdgeStyle;rounded=0;orthogonalLoop=1;jettySize=auto;html=1;strokeColor=#FFFFFF;fontColor=#FFFFFF;" parent="1" source="h3ZFdbcTQpDhvGvfW7HE-6" target="h3ZFdbcTQpDhvGvfW7HE-20" edge="1">
          <mxGeometry relative="1" as="geometry" />
        </mxCell>
        <mxCell id="h3ZFdbcTQpDhvGvfW7HE-6" value="F2" style="ellipse;whiteSpace=wrap;html=1;aspect=fixed;fillColor=#EEEEEE;strokeColor=#FFFFFF;fontColor=#1A1A1A;" parent="1" vertex="1">
          <mxGeometry x="460" y="480" width="60" height="60" as="geometry" />
        </mxCell>
        <mxCell id="h3ZFdbcTQpDhvGvfW7HE-27" style="edgeStyle=orthogonalEdgeStyle;rounded=0;orthogonalLoop=1;jettySize=auto;html=1;exitX=0.5;exitY=1;exitDx=0;exitDy=0;entryX=0.5;entryY=0;entryDx=0;entryDy=0;strokeColor=#FFFFFF;fontColor=#FFFFFF;" parent="1" source="h3ZFdbcTQpDhvGvfW7HE-7" target="h3ZFdbcTQpDhvGvfW7HE-13" edge="1">
          <mxGeometry relative="1" as="geometry" />
        </mxCell>
        <mxCell id="h3ZFdbcTQpDhvGvfW7HE-7" value="F33A" style="ellipse;whiteSpace=wrap;html=1;aspect=fixed;fillColor=#EEEEEE;strokeColor=#FFFFFF;fontColor=#1A1A1A;" parent="1" vertex="1">
          <mxGeometry x="620" y="680" width="60" height="60" as="geometry" />
        </mxCell>
        <mxCell id="h3ZFdbcTQpDhvGvfW7HE-23" style="edgeStyle=orthogonalEdgeStyle;rounded=0;orthogonalLoop=1;jettySize=auto;html=1;exitX=0.5;exitY=1;exitDx=0;exitDy=0;entryX=0.5;entryY=0;entryDx=0;entryDy=0;strokeColor=#FFFFFF;fontColor=#FFFFFF;" parent="1" source="h3ZFdbcTQpDhvGvfW7HE-8" target="h3ZFdbcTQpDhvGvfW7HE-5" edge="1">
          <mxGeometry relative="1" as="geometry">
            <Array as="points">
              <mxPoint x="710" y="665" />
              <mxPoint x="770" y="665" />
            </Array>
          </mxGeometry>
        </mxCell>
        <mxCell id="h3ZFdbcTQpDhvGvfW7HE-24" style="edgeStyle=orthogonalEdgeStyle;rounded=0;orthogonalLoop=1;jettySize=auto;html=1;exitX=0.5;exitY=1;exitDx=0;exitDy=0;entryX=0.5;entryY=0;entryDx=0;entryDy=0;strokeColor=#FFFFFF;fontColor=#FFFFFF;" parent="1" source="h3ZFdbcTQpDhvGvfW7HE-8" target="h3ZFdbcTQpDhvGvfW7HE-7" edge="1">
          <mxGeometry relative="1" as="geometry">
            <Array as="points">
              <mxPoint x="710" y="665" />
              <mxPoint x="650" y="665" />
            </Array>
          </mxGeometry>
        </mxCell>
        <mxCell id="h3ZFdbcTQpDhvGvfW7HE-8" value="F33" style="ellipse;whiteSpace=wrap;html=1;aspect=fixed;fillColor=#EEEEEE;strokeColor=#FFFFFF;fontColor=#1A1A1A;" parent="1" vertex="1">
          <mxGeometry x="680" y="585" width="60" height="60" as="geometry" />
        </mxCell>
        <mxCell id="h3ZFdbcTQpDhvGvfW7HE-22" style="edgeStyle=orthogonalEdgeStyle;rounded=0;orthogonalLoop=1;jettySize=auto;html=1;exitX=0.5;exitY=1;exitDx=0;exitDy=0;entryX=0.5;entryY=0;entryDx=0;entryDy=0;strokeColor=#FFFFFF;fontColor=#FFFFFF;" parent="1" source="h3ZFdbcTQpDhvGvfW7HE-9" target="h3ZFdbcTQpDhvGvfW7HE-8" edge="1">
          <mxGeometry relative="1" as="geometry" />
        </mxCell>
        <mxCell id="h3ZFdbcTQpDhvGvfW7HE-9" value="F3" style="ellipse;whiteSpace=wrap;html=1;aspect=fixed;fillColor=#EEEEEE;strokeColor=#FFFFFF;fontColor=#1A1A1A;" parent="1" vertex="1">
          <mxGeometry x="680" y="480" width="60" height="60" as="geometry" />
        </mxCell>
        <mxCell id="h3ZFdbcTQpDhvGvfW7HE-41" style="edgeStyle=orthogonalEdgeStyle;rounded=0;orthogonalLoop=1;jettySize=auto;html=1;exitX=0.5;exitY=1;exitDx=0;exitDy=0;strokeColor=#FFFFFF;fontColor=#FFFFFF;" parent="1" source="h3ZFdbcTQpDhvGvfW7HE-10" target="h3ZFdbcTQpDhvGvfW7HE-38" edge="1">
          <mxGeometry relative="1" as="geometry" />
        </mxCell>
        <mxCell id="h3ZFdbcTQpDhvGvfW7HE-42" style="edgeStyle=orthogonalEdgeStyle;rounded=0;orthogonalLoop=1;jettySize=auto;html=1;exitX=0.5;exitY=1;exitDx=0;exitDy=0;entryX=0.5;entryY=0;entryDx=0;entryDy=0;strokeColor=#FFFFFF;fontColor=#FFFFFF;" parent="1" source="h3ZFdbcTQpDhvGvfW7HE-10" target="h3ZFdbcTQpDhvGvfW7HE-39" edge="1">
          <mxGeometry relative="1" as="geometry" />
        </mxCell>
        <mxCell id="h3ZFdbcTQpDhvGvfW7HE-43" style="edgeStyle=orthogonalEdgeStyle;rounded=0;orthogonalLoop=1;jettySize=auto;html=1;exitX=0.5;exitY=1;exitDx=0;exitDy=0;entryX=0.5;entryY=0;entryDx=0;entryDy=0;strokeColor=#FFFFFF;fontColor=#FFFFFF;" parent="1" source="h3ZFdbcTQpDhvGvfW7HE-10" target="h3ZFdbcTQpDhvGvfW7HE-40" edge="1">
          <mxGeometry relative="1" as="geometry" />
        </mxCell>
        <mxCell id="h3ZFdbcTQpDhvGvfW7HE-10" value="F1" style="ellipse;whiteSpace=wrap;html=1;aspect=fixed;fillColor=#EEEEEE;strokeColor=#FFFFFF;fontColor=#1A1A1A;" parent="1" vertex="1">
          <mxGeometry x="280" y="480" width="60" height="60" as="geometry" />
        </mxCell>
        <mxCell id="h3ZFdbcTQpDhvGvfW7HE-86" style="edgeStyle=orthogonalEdgeStyle;rounded=0;orthogonalLoop=1;jettySize=auto;html=1;exitX=0.5;exitY=1;exitDx=0;exitDy=0;strokeColor=#FFFFFF;fontColor=#FFFFFF;" parent="1" source="h3ZFdbcTQpDhvGvfW7HE-12" target="h3ZFdbcTQpDhvGvfW7HE-2" edge="1">
          <mxGeometry relative="1" as="geometry" />
        </mxCell>
        <mxCell id="h3ZFdbcTQpDhvGvfW7HE-87" style="edgeStyle=orthogonalEdgeStyle;rounded=0;orthogonalLoop=1;jettySize=auto;html=1;exitX=0.5;exitY=1;exitDx=0;exitDy=0;entryX=0.5;entryY=0;entryDx=0;entryDy=0;strokeColor=#FFFFFF;fontColor=#FFFFFF;" parent="1" source="h3ZFdbcTQpDhvGvfW7HE-12" target="h3ZFdbcTQpDhvGvfW7HE-1" edge="1">
          <mxGeometry relative="1" as="geometry" />
        </mxCell>
        <mxCell id="h3ZFdbcTQpDhvGvfW7HE-88" style="edgeStyle=orthogonalEdgeStyle;rounded=0;orthogonalLoop=1;jettySize=auto;html=1;exitX=0.5;exitY=1;exitDx=0;exitDy=0;entryX=0.5;entryY=0;entryDx=0;entryDy=0;strokeColor=#FFFFFF;fontColor=#FFFFFF;" parent="1" source="h3ZFdbcTQpDhvGvfW7HE-12" target="h3ZFdbcTQpDhvGvfW7HE-83" edge="1">
          <mxGeometry relative="1" as="geometry" />
        </mxCell>
        <mxCell id="h3ZFdbcTQpDhvGvfW7HE-89" style="edgeStyle=orthogonalEdgeStyle;rounded=0;orthogonalLoop=1;jettySize=auto;html=1;exitX=0.5;exitY=1;exitDx=0;exitDy=0;entryX=0.5;entryY=0;entryDx=0;entryDy=0;strokeColor=#FFFFFF;fontColor=#FFFFFF;" parent="1" source="h3ZFdbcTQpDhvGvfW7HE-12" target="h3ZFdbcTQpDhvGvfW7HE-84" edge="1">
          <mxGeometry relative="1" as="geometry" />
        </mxCell>
        <mxCell id="h3ZFdbcTQpDhvGvfW7HE-12" value="Inicio" style="ellipse;whiteSpace=wrap;html=1;aspect=fixed;fillColor=#EEEEEE;strokeColor=#FFFFFF;fontColor=#1A1A1A;" parent="1" vertex="1">
          <mxGeometry x="790" y="200" width="60" height="60" as="geometry" />
        </mxCell>
        <mxCell id="h3ZFdbcTQpDhvGvfW7HE-32" style="edgeStyle=orthogonalEdgeStyle;rounded=0;orthogonalLoop=1;jettySize=auto;html=1;exitX=0.5;exitY=1;exitDx=0;exitDy=0;entryX=0.5;entryY=0;entryDx=0;entryDy=0;strokeColor=#FFFFFF;fontColor=#FFFFFF;" parent="1" source="h3ZFdbcTQpDhvGvfW7HE-13" target="h3ZFdbcTQpDhvGvfW7HE-15" edge="1">
          <mxGeometry relative="1" as="geometry" />
        </mxCell>
        <mxCell id="h3ZFdbcTQpDhvGvfW7HE-13" value="F33BC" style="ellipse;whiteSpace=wrap;html=1;aspect=fixed;fillColor=#EEEEEE;strokeColor=#FFFFFF;fontColor=#1A1A1A;" parent="1" vertex="1">
          <mxGeometry x="620" y="820" width="60" height="60" as="geometry" />
        </mxCell>
        <mxCell id="h3ZFdbcTQpDhvGvfW7HE-33" style="edgeStyle=orthogonalEdgeStyle;rounded=0;orthogonalLoop=1;jettySize=auto;html=1;exitX=0.5;exitY=1;exitDx=0;exitDy=0;strokeColor=#FFFFFF;fontColor=#FFFFFF;" parent="1" source="h3ZFdbcTQpDhvGvfW7HE-14" target="h3ZFdbcTQpDhvGvfW7HE-4" edge="1">
          <mxGeometry relative="1" as="geometry" />
        </mxCell>
        <mxCell id="h3ZFdbcTQpDhvGvfW7HE-14" value="F33D" style="ellipse;whiteSpace=wrap;html=1;aspect=fixed;fillColor=#EEEEEE;strokeColor=#FFFFFF;fontColor=#1A1A1A;" parent="1" vertex="1">
          <mxGeometry x="740" y="820" width="60" height="60" as="geometry" />
        </mxCell>
        <mxCell id="h3ZFdbcTQpDhvGvfW7HE-34" style="edgeStyle=orthogonalEdgeStyle;rounded=0;orthogonalLoop=1;jettySize=auto;html=1;exitX=0.5;exitY=1;exitDx=0;exitDy=0;entryX=0.5;entryY=0;entryDx=0;entryDy=0;strokeColor=#FFFFFF;fontColor=#FFFFFF;" parent="1" source="h3ZFdbcTQpDhvGvfW7HE-15" target="h3ZFdbcTQpDhvGvfW7HE-17" edge="1">
          <mxGeometry relative="1" as="geometry" />
        </mxCell>
        <mxCell id="h3ZFdbcTQpDhvGvfW7HE-15" value="F33E" style="ellipse;whiteSpace=wrap;html=1;aspect=fixed;fillColor=#EEEEEE;strokeColor=#FFFFFF;fontColor=#1A1A1A;" parent="1" vertex="1">
          <mxGeometry x="620" y="950" width="60" height="60" as="geometry" />
        </mxCell>
        <mxCell id="h3ZFdbcTQpDhvGvfW7HE-37" style="edgeStyle=orthogonalEdgeStyle;rounded=0;orthogonalLoop=1;jettySize=auto;html=1;exitX=0.5;exitY=1;exitDx=0;exitDy=0;entryX=0.5;entryY=0;entryDx=0;entryDy=0;strokeColor=#FFFFFF;fontColor=#FFFFFF;" parent="1" source="h3ZFdbcTQpDhvGvfW7HE-16" target="h3ZFdbcTQpDhvGvfW7HE-3" edge="1">
          <mxGeometry relative="1" as="geometry" />
        </mxCell>
        <mxCell id="h3ZFdbcTQpDhvGvfW7HE-16" value="F23" style="ellipse;whiteSpace=wrap;html=1;aspect=fixed;fillColor=#EEEEEE;strokeColor=#FFFFFF;fontColor=#1A1A1A;" parent="1" vertex="1">
          <mxGeometry x="460" y="680" width="60" height="60" as="geometry" />
        </mxCell>
        <mxCell id="h3ZFdbcTQpDhvGvfW7HE-17" value="F33G" style="ellipse;whiteSpace=wrap;html=1;aspect=fixed;fillColor=#EEEEEE;strokeColor=#FFFFFF;fontColor=#1A1A1A;" parent="1" vertex="1">
          <mxGeometry x="680" y="1070" width="60" height="60" as="geometry" />
        </mxCell>
        <mxCell id="h3ZFdbcTQpDhvGvfW7HE-36" style="edgeStyle=orthogonalEdgeStyle;rounded=0;orthogonalLoop=1;jettySize=auto;html=1;exitX=0.5;exitY=1;exitDx=0;exitDy=0;entryX=0.5;entryY=0;entryDx=0;entryDy=0;strokeColor=#FFFFFF;fontColor=#FFFFFF;" parent="1" source="h3ZFdbcTQpDhvGvfW7HE-20" target="h3ZFdbcTQpDhvGvfW7HE-16" edge="1">
          <mxGeometry relative="1" as="geometry" />
        </mxCell>
        <mxCell id="h3ZFdbcTQpDhvGvfW7HE-20" value="F22" style="ellipse;whiteSpace=wrap;html=1;aspect=fixed;fillColor=#EEEEEE;strokeColor=#FFFFFF;fontColor=#1A1A1A;" parent="1" vertex="1">
          <mxGeometry x="460" y="585" width="60" height="60" as="geometry" />
        </mxCell>
        <mxCell id="h3ZFdbcTQpDhvGvfW7HE-45" style="edgeStyle=orthogonalEdgeStyle;rounded=0;orthogonalLoop=1;jettySize=auto;html=1;exitX=0.5;exitY=1;exitDx=0;exitDy=0;strokeColor=#FFFFFF;fontColor=#FFFFFF;" parent="1" source="h3ZFdbcTQpDhvGvfW7HE-38" target="h3ZFdbcTQpDhvGvfW7HE-44" edge="1">
          <mxGeometry relative="1" as="geometry" />
        </mxCell>
        <mxCell id="h3ZFdbcTQpDhvGvfW7HE-38" value="F1A" style="ellipse;whiteSpace=wrap;html=1;aspect=fixed;fillColor=#EEEEEE;strokeColor=#FFFFFF;fontColor=#1A1A1A;" parent="1" vertex="1">
          <mxGeometry x="320" y="620" width="60" height="60" as="geometry" />
        </mxCell>
        <mxCell id="h3ZFdbcTQpDhvGvfW7HE-56" style="edgeStyle=orthogonalEdgeStyle;rounded=0;orthogonalLoop=1;jettySize=auto;html=1;exitX=0.5;exitY=1;exitDx=0;exitDy=0;strokeColor=#FFFFFF;fontColor=#FFFFFF;" parent="1" source="h3ZFdbcTQpDhvGvfW7HE-39" target="h3ZFdbcTQpDhvGvfW7HE-53" edge="1">
          <mxGeometry relative="1" as="geometry" />
        </mxCell>
        <mxCell id="h3ZFdbcTQpDhvGvfW7HE-39" value="F1B" style="ellipse;whiteSpace=wrap;html=1;aspect=fixed;fillColor=#EEEEEE;strokeColor=#FFFFFF;fontColor=#1A1A1A;" parent="1" vertex="1">
          <mxGeometry x="170" y="620" width="60" height="60" as="geometry" />
        </mxCell>
        <mxCell id="h3ZFdbcTQpDhvGvfW7HE-63" style="edgeStyle=orthogonalEdgeStyle;rounded=0;orthogonalLoop=1;jettySize=auto;html=1;exitX=0.5;exitY=1;exitDx=0;exitDy=0;strokeColor=#FFFFFF;fontColor=#FFFFFF;" parent="1" source="h3ZFdbcTQpDhvGvfW7HE-40" target="h3ZFdbcTQpDhvGvfW7HE-62" edge="1">
          <mxGeometry relative="1" as="geometry" />
        </mxCell>
        <mxCell id="h3ZFdbcTQpDhvGvfW7HE-64" style="edgeStyle=orthogonalEdgeStyle;rounded=0;orthogonalLoop=1;jettySize=auto;html=1;exitX=0.5;exitY=1;exitDx=0;exitDy=0;entryX=0.5;entryY=0;entryDx=0;entryDy=0;strokeColor=#FFFFFF;fontColor=#FFFFFF;" parent="1" source="h3ZFdbcTQpDhvGvfW7HE-40" target="h3ZFdbcTQpDhvGvfW7HE-61" edge="1">
          <mxGeometry relative="1" as="geometry" />
        </mxCell>
        <mxCell id="h3ZFdbcTQpDhvGvfW7HE-40" value="F1C" style="ellipse;whiteSpace=wrap;html=1;aspect=fixed;fillColor=#EEEEEE;strokeColor=#FFFFFF;fontColor=#1A1A1A;" parent="1" vertex="1">
          <mxGeometry y="620" width="60" height="60" as="geometry" />
        </mxCell>
        <mxCell id="h3ZFdbcTQpDhvGvfW7HE-48" style="edgeStyle=orthogonalEdgeStyle;rounded=0;orthogonalLoop=1;jettySize=auto;html=1;exitX=0.5;exitY=1;exitDx=0;exitDy=0;entryX=0.5;entryY=0;entryDx=0;entryDy=0;strokeColor=#FFFFFF;fontColor=#FFFFFF;" parent="1" source="h3ZFdbcTQpDhvGvfW7HE-44" target="h3ZFdbcTQpDhvGvfW7HE-47" edge="1">
          <mxGeometry relative="1" as="geometry" />
        </mxCell>
        <mxCell id="h3ZFdbcTQpDhvGvfW7HE-52" style="edgeStyle=orthogonalEdgeStyle;rounded=0;orthogonalLoop=1;jettySize=auto;html=1;exitX=0.5;exitY=1;exitDx=0;exitDy=0;strokeColor=#FFFFFF;fontColor=#FFFFFF;" parent="1" source="h3ZFdbcTQpDhvGvfW7HE-44" target="h3ZFdbcTQpDhvGvfW7HE-51" edge="1">
          <mxGeometry relative="1" as="geometry" />
        </mxCell>
        <mxCell id="h3ZFdbcTQpDhvGvfW7HE-73" style="edgeStyle=orthogonalEdgeStyle;rounded=0;orthogonalLoop=1;jettySize=auto;html=1;exitX=0;exitY=0.5;exitDx=0;exitDy=0;strokeColor=#FFFFFF;fontColor=#FFFFFF;" parent="1" source="h3ZFdbcTQpDhvGvfW7HE-44" target="h3ZFdbcTQpDhvGvfW7HE-71" edge="1">
          <mxGeometry relative="1" as="geometry" />
        </mxCell>
        <mxCell id="h3ZFdbcTQpDhvGvfW7HE-44" value="F1A1" style="ellipse;whiteSpace=wrap;html=1;aspect=fixed;fillColor=#EEEEEE;strokeColor=#FFFFFF;fontColor=#1A1A1A;" parent="1" vertex="1">
          <mxGeometry x="320" y="750" width="60" height="60" as="geometry" />
        </mxCell>
        <mxCell id="h3ZFdbcTQpDhvGvfW7HE-46" value="F25" style="ellipse;whiteSpace=wrap;html=1;aspect=fixed;fillColor=#EEEEEE;strokeColor=#FFFFFF;fontColor=#1A1A1A;" parent="1" vertex="1">
          <mxGeometry x="520" y="930" width="60" height="60" as="geometry" />
        </mxCell>
        <mxCell id="h3ZFdbcTQpDhvGvfW7HE-47" value="F12" style="ellipse;whiteSpace=wrap;html=1;aspect=fixed;fillColor=#EEEEEE;strokeColor=#FFFFFF;fontColor=#1A1A1A;" parent="1" vertex="1">
          <mxGeometry x="400" y="930" width="60" height="60" as="geometry" />
        </mxCell>
        <mxCell id="h3ZFdbcTQpDhvGvfW7HE-51" value="F1A2" style="ellipse;whiteSpace=wrap;html=1;aspect=fixed;fillColor=#EEEEEE;strokeColor=#FFFFFF;fontColor=#1A1A1A;" parent="1" vertex="1">
          <mxGeometry x="320" y="930" width="60" height="60" as="geometry" />
        </mxCell>
        <mxCell id="h3ZFdbcTQpDhvGvfW7HE-55" style="edgeStyle=orthogonalEdgeStyle;rounded=0;orthogonalLoop=1;jettySize=auto;html=1;exitX=0.5;exitY=1;exitDx=0;exitDy=0;strokeColor=#FFFFFF;fontColor=#FFFFFF;" parent="1" source="h3ZFdbcTQpDhvGvfW7HE-53" target="h3ZFdbcTQpDhvGvfW7HE-54" edge="1">
          <mxGeometry relative="1" as="geometry" />
        </mxCell>
        <mxCell id="h3ZFdbcTQpDhvGvfW7HE-72" value="" style="edgeStyle=orthogonalEdgeStyle;rounded=0;orthogonalLoop=1;jettySize=auto;html=1;strokeColor=#FFFFFF;fontColor=#FFFFFF;" parent="1" source="h3ZFdbcTQpDhvGvfW7HE-53" target="h3ZFdbcTQpDhvGvfW7HE-71" edge="1">
          <mxGeometry relative="1" as="geometry" />
        </mxCell>
        <mxCell id="h3ZFdbcTQpDhvGvfW7HE-53" value="F1B1" style="ellipse;whiteSpace=wrap;html=1;aspect=fixed;fillColor=#EEEEEE;strokeColor=#FFFFFF;fontColor=#1A1A1A;" parent="1" vertex="1">
          <mxGeometry x="170" y="750" width="60" height="60" as="geometry" />
        </mxCell>
        <mxCell id="h3ZFdbcTQpDhvGvfW7HE-54" value="F1B2" style="ellipse;whiteSpace=wrap;html=1;aspect=fixed;fillColor=#EEEEEE;strokeColor=#FFFFFF;fontColor=#1A1A1A;" parent="1" vertex="1">
          <mxGeometry x="170" y="930" width="60" height="60" as="geometry" />
        </mxCell>
        <mxCell id="h3ZFdbcTQpDhvGvfW7HE-57" value="F1C6" style="ellipse;whiteSpace=wrap;html=1;aspect=fixed;fillColor=#EEEEEE;strokeColor=#FFFFFF;fontColor=#1A1A1A;" parent="1" vertex="1">
          <mxGeometry x="60" y="1030" width="60" height="60" as="geometry" />
        </mxCell>
        <mxCell id="h3ZFdbcTQpDhvGvfW7HE-58" value="F1C5" style="ellipse;whiteSpace=wrap;html=1;aspect=fixed;fillColor=#EEEEEE;strokeColor=#FFFFFF;fontColor=#1A1A1A;" parent="1" vertex="1">
          <mxGeometry x="-60" y="1030" width="60" height="60" as="geometry" />
        </mxCell>
        <mxCell id="h3ZFdbcTQpDhvGvfW7HE-67" style="edgeStyle=orthogonalEdgeStyle;rounded=0;orthogonalLoop=1;jettySize=auto;html=1;exitX=0.5;exitY=1;exitDx=0;exitDy=0;entryX=0.5;entryY=0;entryDx=0;entryDy=0;strokeColor=#FFFFFF;fontColor=#FFFFFF;" parent="1" source="h3ZFdbcTQpDhvGvfW7HE-59" target="h3ZFdbcTQpDhvGvfW7HE-58" edge="1">
          <mxGeometry relative="1" as="geometry" />
        </mxCell>
        <mxCell id="h3ZFdbcTQpDhvGvfW7HE-68" style="edgeStyle=orthogonalEdgeStyle;rounded=0;orthogonalLoop=1;jettySize=auto;html=1;exitX=0.5;exitY=1;exitDx=0;exitDy=0;entryX=0.5;entryY=0;entryDx=0;entryDy=0;strokeColor=#FFFFFF;fontColor=#FFFFFF;" parent="1" source="h3ZFdbcTQpDhvGvfW7HE-59" target="h3ZFdbcTQpDhvGvfW7HE-57" edge="1">
          <mxGeometry relative="1" as="geometry" />
        </mxCell>
        <mxCell id="h3ZFdbcTQpDhvGvfW7HE-59" value="F1C4" style="ellipse;whiteSpace=wrap;html=1;aspect=fixed;fillColor=#EEEEEE;strokeColor=#FFFFFF;fontColor=#1A1A1A;" parent="1" vertex="1">
          <mxGeometry y="930" width="60" height="60" as="geometry" />
        </mxCell>
        <mxCell id="h3ZFdbcTQpDhvGvfW7HE-69" style="edgeStyle=orthogonalEdgeStyle;rounded=0;orthogonalLoop=1;jettySize=auto;html=1;exitX=0.5;exitY=1;exitDx=0;exitDy=0;entryX=0.5;entryY=0;entryDx=0;entryDy=0;strokeColor=#FFFFFF;fontColor=#FFFFFF;" parent="1" source="h3ZFdbcTQpDhvGvfW7HE-60" target="h3ZFdbcTQpDhvGvfW7HE-59" edge="1">
          <mxGeometry relative="1" as="geometry" />
        </mxCell>
        <mxCell id="h3ZFdbcTQpDhvGvfW7HE-60" value="F1C3" style="ellipse;whiteSpace=wrap;html=1;aspect=fixed;fillColor=#EEEEEE;strokeColor=#FFFFFF;fontColor=#1A1A1A;" parent="1" vertex="1">
          <mxGeometry y="830" width="60" height="60" as="geometry" />
        </mxCell>
        <mxCell id="h3ZFdbcTQpDhvGvfW7HE-66" style="edgeStyle=orthogonalEdgeStyle;rounded=0;orthogonalLoop=1;jettySize=auto;html=1;exitX=0.5;exitY=1;exitDx=0;exitDy=0;entryX=0.5;entryY=0;entryDx=0;entryDy=0;strokeColor=#FFFFFF;fontColor=#FFFFFF;" parent="1" source="h3ZFdbcTQpDhvGvfW7HE-61" target="h3ZFdbcTQpDhvGvfW7HE-60" edge="1">
          <mxGeometry relative="1" as="geometry" />
        </mxCell>
        <mxCell id="h3ZFdbcTQpDhvGvfW7HE-61" value="F1C2" style="ellipse;whiteSpace=wrap;html=1;aspect=fixed;fillColor=#EEEEEE;strokeColor=#FFFFFF;fontColor=#1A1A1A;" parent="1" vertex="1">
          <mxGeometry x="60" y="720" width="60" height="60" as="geometry" />
        </mxCell>
        <mxCell id="h3ZFdbcTQpDhvGvfW7HE-65" style="edgeStyle=orthogonalEdgeStyle;rounded=0;orthogonalLoop=1;jettySize=auto;html=1;exitX=0.5;exitY=1;exitDx=0;exitDy=0;entryX=0.5;entryY=0;entryDx=0;entryDy=0;strokeColor=#FFFFFF;fontColor=#FFFFFF;" parent="1" source="h3ZFdbcTQpDhvGvfW7HE-62" target="h3ZFdbcTQpDhvGvfW7HE-60" edge="1">
          <mxGeometry relative="1" as="geometry" />
        </mxCell>
        <mxCell id="h3ZFdbcTQpDhvGvfW7HE-62" value="F1C1" style="ellipse;whiteSpace=wrap;html=1;aspect=fixed;fillColor=#EEEEEE;strokeColor=#FFFFFF;fontColor=#1A1A1A;" parent="1" vertex="1">
          <mxGeometry x="-60" y="720" width="60" height="60" as="geometry" />
        </mxCell>
        <mxCell id="h3ZFdbcTQpDhvGvfW7HE-75" value="" style="edgeStyle=orthogonalEdgeStyle;rounded=0;orthogonalLoop=1;jettySize=auto;html=1;strokeColor=#FFFFFF;fontColor=#FFFFFF;" parent="1" source="h3ZFdbcTQpDhvGvfW7HE-71" target="h3ZFdbcTQpDhvGvfW7HE-74" edge="1">
          <mxGeometry relative="1" as="geometry" />
        </mxCell>
        <mxCell id="h3ZFdbcTQpDhvGvfW7HE-71" value="F1BA" style="ellipse;whiteSpace=wrap;html=1;aspect=fixed;fillColor=#EEEEEE;strokeColor=#FFFFFF;fontColor=#1A1A1A;" parent="1" vertex="1">
          <mxGeometry x="250" y="830" width="60" height="60" as="geometry" />
        </mxCell>
        <mxCell id="h3ZFdbcTQpDhvGvfW7HE-80" style="edgeStyle=orthogonalEdgeStyle;rounded=0;orthogonalLoop=1;jettySize=auto;html=1;exitX=0.5;exitY=1;exitDx=0;exitDy=0;entryX=0.5;entryY=0;entryDx=0;entryDy=0;strokeColor=#FFFFFF;fontColor=#FFFFFF;" parent="1" source="h3ZFdbcTQpDhvGvfW7HE-74" target="h3ZFdbcTQpDhvGvfW7HE-77" edge="1">
          <mxGeometry relative="1" as="geometry" />
        </mxCell>
        <mxCell id="h3ZFdbcTQpDhvGvfW7HE-81" style="edgeStyle=orthogonalEdgeStyle;rounded=0;orthogonalLoop=1;jettySize=auto;html=1;exitX=0.5;exitY=1;exitDx=0;exitDy=0;entryX=0.5;entryY=0;entryDx=0;entryDy=0;strokeColor=#FFFFFF;fontColor=#FFFFFF;" parent="1" source="h3ZFdbcTQpDhvGvfW7HE-74" target="h3ZFdbcTQpDhvGvfW7HE-78" edge="1">
          <mxGeometry relative="1" as="geometry" />
        </mxCell>
        <mxCell id="h3ZFdbcTQpDhvGvfW7HE-82" style="edgeStyle=orthogonalEdgeStyle;rounded=0;orthogonalLoop=1;jettySize=auto;html=1;exitX=0.5;exitY=1;exitDx=0;exitDy=0;entryX=0.5;entryY=0;entryDx=0;entryDy=0;strokeColor=#FFFFFF;fontColor=#FFFFFF;" parent="1" source="h3ZFdbcTQpDhvGvfW7HE-74" target="h3ZFdbcTQpDhvGvfW7HE-79" edge="1">
          <mxGeometry relative="1" as="geometry" />
        </mxCell>
        <mxCell id="h3ZFdbcTQpDhvGvfW7HE-74" value="F1BA1" style="ellipse;whiteSpace=wrap;html=1;aspect=fixed;fillColor=#EEEEEE;strokeColor=#FFFFFF;fontColor=#1A1A1A;" parent="1" vertex="1">
          <mxGeometry x="250" y="1030" width="60" height="60" as="geometry" />
        </mxCell>
        <mxCell id="h3ZFdbcTQpDhvGvfW7HE-77" value="F1BA2" style="ellipse;whiteSpace=wrap;html=1;aspect=fixed;fillColor=#EEEEEE;strokeColor=#FFFFFF;fontColor=#1A1A1A;" parent="1" vertex="1">
          <mxGeometry x="160" y="1130" width="60" height="60" as="geometry" />
        </mxCell>
        <mxCell id="h3ZFdbcTQpDhvGvfW7HE-78" value="F1BA3" style="ellipse;whiteSpace=wrap;html=1;aspect=fixed;fillColor=#EEEEEE;strokeColor=#FFFFFF;fontColor=#1A1A1A;" parent="1" vertex="1">
          <mxGeometry x="250" y="1130" width="60" height="60" as="geometry" />
        </mxCell>
        <mxCell id="h3ZFdbcTQpDhvGvfW7HE-79" value="F1BA4" style="ellipse;whiteSpace=wrap;html=1;aspect=fixed;fillColor=#EEEEEE;strokeColor=#FFFFFF;fontColor=#1A1A1A;" parent="1" vertex="1">
          <mxGeometry x="340" y="1130" width="60" height="60" as="geometry" />
        </mxCell>
        <mxCell id="h3ZFdbcTQpDhvGvfW7HE-83" value="" style="ellipse;whiteSpace=wrap;html=1;aspect=fixed;fillColor=#EEEEEE;strokeColor=#FFFFFF;fontColor=#1A1A1A;" parent="1" vertex="1">
          <mxGeometry x="1370" y="350" width="60" height="60" as="geometry" />
        </mxCell>
        <mxCell id="h3ZFdbcTQpDhvGvfW7HE-84" value="" style="ellipse;whiteSpace=wrap;html=1;aspect=fixed;fillColor=#EEEEEE;strokeColor=#FFFFFF;fontColor=#1A1A1A;" parent="1" vertex="1">
          <mxGeometry x="2170" y="350" width="60" height="60" as="geometry" />
        </mxCell>
        <mxCell id="h3ZFdbcTQpDhvGvfW7HE-90" value="" style="ellipse;whiteSpace=wrap;html=1;aspect=fixed;fillColor=#EEEEEE;strokeColor=#FFFFFF;fontColor=#1A1A1A;" parent="1" vertex="1">
          <mxGeometry x="-620" y="610" width="60" height="60" as="geometry" />
        </mxCell>
        <mxCell id="h3ZFdbcTQpDhvGvfW7HE-91" value="" style="ellipse;whiteSpace=wrap;html=1;aspect=fixed;fillColor=#EEEEEE;strokeColor=#FFFFFF;fontColor=#1A1A1A;" parent="1" vertex="1">
          <mxGeometry x="-630" y="480" width="60" height="60" as="geometry" />
        </mxCell>
      </root>
    </mxGraphModel>
  </diagram>
</mxfile>
